<?xml version="1.0" standalone="no"?>
<!DOCTYPE svg PUBLIC "-//W3C//DTD SVG 20010904//EN"
 "http://www.w3.org/TR/2001/REC-SVG-20010904/DTD/svg10.dtd">
<svg version="1.0" xmlns="http://www.w3.org/2000/svg"
 width="2000.000000pt" height="2000.000000pt" viewBox="0 0 2000.000000 2000.000000"
 preserveAspectRatio="xMidYMid meet">
<metadata>
Created by potrace 1.11, written by Peter Selinger 2001-2013
</metadata>
<g transform="translate(0.000000,2000.000000) scale(0.100000,-0.100000)"
fill="#000000" stroke="none">
<path d="M0 10000 l0 -10000 10000 0 10000 0 0 10000 0 10000 -10000 0 -10000
0 0 -10000z m10987 5548 l981 -3433 -984 -985 -984 -985 -984 985 -984 985
981 3433 c540 1887 984 3432 987 3432 3 0 447 -1545 987 -3432z m-1 -6679
l981 -981 -981 -3434 c-540 -1888 -983 -3434 -986 -3434 -3 0 -446 1546 -986
3434 l-981 3434 981 981 c540 540 983 981 986 981 3 0 446 -441 986 -981z"/>
</g>
</svg>
